<?xml version="1.0" encoding="UTF-8"?>
<svg width="100" height="100" viewBox="0 0 100 100" xmlns="http://www.w3.org/2000/svg">
    <!-- Carrot Body -->
    <path d="M50,20 L70,60 Q70,90 50,90 Q30,90 30,60 Z" fill="#FF6B3D"/>
    
    <!-- Carrot Lines -->
    <path d="M40,40 Q50,45 60,40" fill="none" stroke="#E85D35" stroke-width="2"/>
    <path d="M38,50 Q50,55 62,50" fill="none" stroke="#E85D35" stroke-width="2"/>
    <path d="M36,60 Q50,65 64,60" fill="none" stroke="#E85D35" stroke-width="2"/>
    
    <!-- Carrot Top -->
    <path d="M30,20 Q50,5 70,20" fill="#4CAF50"/>
    <path d="M35,18 Q50,8 65,18" fill="#66BB6A"/>
    
    <!-- Eyes -->
    <circle cx="40" cy="35" r="4" fill="white"/>
    <circle cx="60" cy="35" r="4" fill="white"/>
    <circle cx="40" cy="35" r="2" fill="black"/>
    <circle cx="60" cy="35" r="2" fill="black"/>
    
    <!-- Smile -->
    <path d="M40,45 Q50,52 60,45" fill="none" stroke="white" stroke-width="2" stroke-linecap="round"/>
    
    <!-- Bicycle -->
    <circle cx="30" cy="85" r="10" fill="none" stroke="#4CAF50" stroke-width="3"/>
    <circle cx="70" cy="85" r="10" fill="none" stroke="#4CAF50" stroke-width="3"/>
    <line x1="30" y1="85" x2="70" y2="85" stroke="#4CAF50" stroke-width="3"/>
</svg> 