<?xml version="1.0" encoding="UTF-8"?>
<svg width="100" height="100" viewBox="0 0 100 100" xmlns="http://www.w3.org/2000/svg">
    <!-- Cat Body -->
    <ellipse cx="50" cy="55" rx="25" ry="20" fill="#808080"/>
    
    <!-- Cat Head -->
    <circle cx="50" cy="40" r="18" fill="#808080"/>
    
    <!-- Cat Ears -->
    <path d="M35,30 L30,15 L40,25 Z" fill="#808080"/>
    <path d="M65,30 L70,15 L60,25 Z" fill="#808080"/>
    
    <!-- Cat Face -->
    <circle cx="43" cy="35" r="4" fill="white"/>
    <circle cx="57" cy="35" r="4" fill="white"/>
    <circle cx="43" cy="35" r="2" fill="black"/>
    <circle cx="57" cy="35" r="2" fill="black"/>
    
    <!-- Cat Nose -->
    <circle cx="50" cy="42" r="3" fill="#FFA0A0"/>
    
    <!-- Cat Whiskers -->
    <line x1="35" y1="42" x2="25" y2="40" stroke="#fff" stroke-width="1"/>
    <line x1="35" y1="44" x2="25" y2="44" stroke="#fff" stroke-width="1"/>
    <line x1="35" y1="46" x2="25" y2="48" stroke="#fff" stroke-width="1"/>
    <line x1="65" y1="42" x2="75" y2="40" stroke="#fff" stroke-width="1"/>
    <line x1="65" y1="44" x2="75" y2="44" stroke="#fff" stroke-width="1"/>
    <line x1="65" y1="46" x2="75" y2="48" stroke="#fff" stroke-width="1"/>
    
    <!-- Cat Mouth -->
    <path d="M45,45 Q50,48 55,45" fill="none" stroke="white" stroke-width="1"/>
    
    <!-- Cat Tail -->
    <path d="M75,55 Q85,45 80,35" fill="none" stroke="#808080" stroke-width="8" stroke-linecap="round"/>
    
    <!-- Bicycle -->
    <circle cx="30" cy="85" r="10" fill="none" stroke="#9B59B6" stroke-width="3"/>
    <circle cx="70" cy="85" r="10" fill="none" stroke="#9B59B6" stroke-width="3"/>
    <line x1="30" y1="85" x2="70" y2="85" stroke="#9B59B6" stroke-width="3"/>
</svg> 